HIERARCHY
ROOT Hips
{
	OFFSET 0.00000 0.00000 0.00000
	CHANNELS 6 Xposition Yposition Zposition Zrotation Yrotation Xrotation 
	JOINT LHipJoint
	{
		OFFSET 0 0 0
		CHANNELS 3 Zrotation Yrotation Xrotation
		JOINT LeftUpLeg
		{
			OFFSET 1.55766 -1.60504 1.11378
			CHANNELS 3 Zrotation Yrotation Xrotation
			JOINT LeftLeg
			{
				OFFSET 2.29047 -6.29302 0.00000
				CHANNELS 3 Zrotation Yrotation Xrotation
				JOINT LeftFoot
				{
					OFFSET 2.52265 -6.93093 0.00000
					CHANNELS 3 Zrotation Yrotation Xrotation
					JOINT LeftToeBase
					{
						OFFSET 0.17633 -0.48446 2.02656
						CHANNELS 3 Zrotation Yrotation Xrotation
						End Site
						{
							OFFSET 0.00000 -0.00000 1.04989
						}
					}
				}
			}
		}
	}
	JOINT RHipJoint
	{
		OFFSET 0 0 0
		CHANNELS 3 Zrotation Yrotation Xrotation
		JOINT RightUpLeg
		{
			OFFSET -1.48599 -1.60504 1.11378
			CHANNELS 3 Zrotation Yrotation Xrotation
			JOINT RightLeg
			{
				OFFSET -2.27280 -6.24448 0.00000
				CHANNELS 3 Zrotation Yrotation Xrotation
				JOINT RightFoot
				{
					OFFSET -2.50834 -6.89161 0.00000
					CHANNELS 3 Zrotation Yrotation Xrotation
					JOINT RightToeBase
					{
						OFFSET -0.26967 -0.74090 2.08741
						CHANNELS 3 Zrotation Yrotation Xrotation
						End Site
						{
							OFFSET -0.00000 -0.00000 1.10614
						}
					}
				}
			}
		}
	}
	JOINT LowerBack
	{
		OFFSET 0 0 0
		CHANNELS 3 Zrotation Yrotation Xrotation
		JOINT Spine
		{
			OFFSET 0.06481 2.02437 -0.08472
			CHANNELS 3 Zrotation Yrotation Xrotation
			JOINT Spine1
			{
				OFFSET 0.00015 1.96711 0.18069
				CHANNELS 3 Zrotation Yrotation Xrotation
				JOINT Neck
				{
					OFFSET 0 0 0
					CHANNELS 3 Zrotation Yrotation Xrotation
					JOINT Neck1
					{
						OFFSET -0.29961 1.68293 -0.13041
						CHANNELS 3 Zrotation Yrotation Xrotation
						JOINT Head
						{
							OFFSET 0.59697 1.61501 -0.14669
							CHANNELS 3 Zrotation Yrotation Xrotation
							End Site
							{
								OFFSET 0.22973 1.74906 -0.10148
							}
						}
					}
				}
				JOINT LeftShoulder
				{
					OFFSET 0 0 0
					CHANNELS 3 Zrotation Yrotation Xrotation
					JOINT LeftArm
					{
						OFFSET 3.37968 1.02893 0.31147
						CHANNELS 3 Zrotation Yrotation Xrotation
						JOINT LeftForeArm
						{
							OFFSET 5.19807 -0.00000 -0.00000
							CHANNELS 3 Zrotation Yrotation Xrotation
							JOINT LeftHand
							{
								OFFSET 3.09370 -0.00000 -0.00000
								CHANNELS 3 Zrotation Yrotation Xrotation
								JOINT LeftFingerBase
								{
									OFFSET 0 0 0
									CHANNELS 3 Zrotation Yrotation Xrotation
									JOINT LeftHandIndex1
									{
										OFFSET 0.67263 -0.00000 -0.00000
										CHANNELS 3 Zrotation Yrotation Xrotation
										End Site
										{
											OFFSET 0.54229 -0.00000 -0.00000
										}
									}
								}
								JOINT LThumb
								{
									OFFSET 0 0 0
									CHANNELS 3 Zrotation Yrotation Xrotation
									End Site
									{
										OFFSET 0.55057 -0.00000 0.55057
									}
								}
							}
						}
					}
				}
				JOINT RightShoulder
				{
					OFFSET 0 0 0
					CHANNELS 3 Zrotation Yrotation Xrotation
					JOINT RightArm
					{
						OFFSET -3.38254 0.96355 -0.16120
						CHANNELS 3 Zrotation Yrotation Xrotation
						JOINT RightForeArm
						{
							OFFSET -5.45222 -0.00000 -0.00000
							CHANNELS 3 Zrotation Yrotation Xrotation
							JOINT RightHand
							{
								OFFSET -3.01284 -0.00000 -0.00000
								CHANNELS 3 Zrotation Yrotation Xrotation
								JOINT RightFingerBase
								{
									OFFSET 0 0 0
									CHANNELS 3 Zrotation Yrotation Xrotation
									JOINT RightHandIndex1
									{
										OFFSET -0.62230 -0.00000 -0.00000
										CHANNELS 3 Zrotation Yrotation Xrotation
										End Site
										{
											OFFSET -0.50171 -0.00000 -0.00000
										}
									}
								}
								JOINT RThumb
								{
									OFFSET 0 0 0
									CHANNELS 3 Zrotation Yrotation Xrotation
									End Site
									{
										OFFSET -0.50937 -0.00000 0.50937
									}
								}
							}
						}
					}
				}
			}
		}
	}
}
MOTION
Frames: 10
Frame Time: 0.2
0.00 0.00 0.00 0 0 0 0 0 0 -21 0 0 0 0 0 0 0 0 0 0 0 0 0 0 21 0 0 0 0 0 0 0 0 0 0 0 0 0 0 0 0 0 0 0 0 0 0 -16 0 0 21 0 0 11 0 0 0 -8 0 0 0 0 0 0 0 0 0 0 0 0 0 0 0 0 0 0 0 0 8 0 0 0 0 0 0 0 0 0 0 0 0 0 0 0 0 0
0.00 0.00 0.00 -150.2410 -85.3874 160.5730 0.0000 0.0000 0.0000 -21.3962 -5.9159 -20.8835 2.4865 9.8133 28.3741 0.8745 -8.6193 -16.8494 0.4602 -4.3516 -12.0680 0.0000 0.0000 0.0000 14.2997 7.1661 -20.1578 -3.3421 -11.2293 33.0571 -0.9356 5.5624 -17.2619 -1.9932 8.8519 -25.3331 -0.0414 1.2838 -5.4976 0.5141 1.5427 -5.8131 0.5998 0.7079 -2.9265 -30.6123 -6.6780 16.2090 43.8229 -16.2431 -4.6677 24.0055 -10.8505 3.0576 -0.0000 0.0000 0.0000 -78.4019 4.8926 66.0326 31.0588 -41.7838 -12.1090 -0.0000 0.0000 -38.3679 9.1219 -9.8975 -1.5809 -7.1250 0.0000 -0.0000 -12.6863 20.0706 7.7524 -0.0000 0.0000 0.0000 77.1253 2.6418 69.5380 -33.8792 43.9950 -14.0291 0.0000 0.0000 8.1081 0.8283 -0.6171 -0.0089 7.1250 -0.0000 -0.0000 21.3090 -30.1539 8.2427
0.00 0.00 0.00 -162.0640 -83.3869 172.8640 0.0000 0.0000 0.0000 -22.3323 -5.3374 -29.9895 4.5980 12.9163 39.0559 1.1628 -10.3366 -19.5159 0.1670 -2.6326 -7.2576 0.0000 0.0000 0.0000 14.7971 0.8901 -33.4189 -7.2803 -15.5635 49.9268 -1.4356 7.1929 -21.4345 -2.0135 8.8941 -25.4646 -0.2376 1.5236 -0.2157 0.2386 1.9302 -5.5301 0.2945 0.9283 -5.6140 -28.8773 -6.0472 14.2910 44.9740 -15.9407 -1.1746 24.7023 -10.7294 4.2332 -0.0000 -0.0000 0.0000 -77.3855 -0.0555 61.5894 39.1646 -47.5671 -17.8202 -0.0000 0.0000 -48.2131 5.9656 -7.2035 -0.7507 -7.1250 0.0000 -0.0000 -15.1415 22.7905 8.3820 -0.0000 -0.0000 0.0000 73.2975 6.5704 68.0659 -51.8109 53.7002 -27.6270 0.0000 0.0000 3.4931 6.9954 -0.8054 -0.0988 7.1250 -0.0000 -0.0000 25.8620 -30.0595 10.4131
0.00 0.00 0.00 -160.3380 -81.5429 171.6210 0.0000 0.0000 0.0000 -21.4255 -5.6844 -36.6164 6.7386 15.1078 47.8787 1.5184 -11.2079 -22.2685 0.0219 -0.9564 -2.6289 0.0000 0.0000 0.0000 19.9202 -4.2819 -38.9573 -12.5602 -18.6176 67.7538 -1.5556 8.1755 -22.3265 -2.6385 10.0854 -29.2539 0.3944 1.8403 1.4410 0.4737 2.4289 -4.8799 0.1160 1.1650 -5.8647 -27.6082 -4.7624 13.0041 45.6668 -14.7396 2.0752 25.5864 -10.1024 4.7735 0.0000 0.0000 0.0000 -79.3205 0.1995 48.7870 44.5462 -50.5442 -21.8878 -0.0000 0.0000 -55.9728 6.6433 -7.0672 -0.8210 -7.1250 0.0000 -0.0000 -14.6702 22.9123 8.0606 0.0000 0.0000 0.0000 75.1539 5.9869 58.8261 -60.3860 56.4119 -34.6625 0.0000 -0.0000 -1.7000 3.7676 -0.0533 -0.0035 7.1250 -0.0000 -0.0000 23.3504 -29.5195 9.5498
0.00 0.00 0.00 -171.0670 -76.8945 184.8750 0.0000 0.0000 0.0000 -21.8626 -8.1464 -46.8319 10.1678 17.5032 60.0479 2.2820 -8.1124 -27.1777 0.0345 -1.1981 -3.2942 0.0000 0.0000 0.0000 25.1773 -12.7372 -33.5583 -15.4848 -19.5040 76.6928 0.1590 13.5187 -7.3782 -3.9850 12.1404 -36.2304 0.5397 3.2771 0.5942 -0.2605 4.3258 -4.4302 -0.7731 2.0964 -4.8436 -26.1366 -3.1677 12.0148 46.7855 -13.6636 5.8984 27.2668 -9.6756 5.5968 -0.0000 0.0000 0.0000 -81.4171 4.5448 22.8151 47.1511 -51.7798 -23.9171 -0.0000 0.0000 -69.6308 16.2413 -9.1509 -2.6525 -7.1250 0.0000 -0.0000 -7.6614 20.4945 4.5342 -0.0000 0.0000 0.0000 85.4363 0.3470 38.5145 -57.3777 55.5697 -32.1685 0.0000 -0.0000 -27.3099 -28.3437 -13.6959 7.2784 7.1250 -0.0000 -0.0000 -0.8796 -45.4549 0.0099
0.00 0.00 0.00 -171.5880 -66.9694 188.3170 0.0000 0.0000 0.0000 -20.2083 -2.6800 -61.4052 14.5691 19.2776 73.9353 2.9789 -8.4664 -31.2091 0.0314 -1.1438 -3.1445 0.0000 0.0000 0.0000 28.2685 -15.8727 -22.1214 -11.1025 -17.9849 63.1141 -0.9983 17.7583 -20.3524 -4.1721 12.3860 -37.1115 -0.9512 5.6485 1.0992 0.0307 7.4587 -4.7194 0.1081 3.7152 -5.6293 -24.8081 -1.7927 9.7893 47.5790 -11.7705 7.6193 28.1614 -8.5553 5.6093 0.0000 -0.0000 0.0000 -76.8699 6.6326 -7.2829 35.1066 -44.8881 -14.8885 -0.0000 0.0000 -83.8367 31.9615 -9.8792 -6.1102 -7.1250 0.0000 -0.0000 3.5014 18.3923 -2.2219 0.0000 -0.0000 0.0000 91.0153 -2.1427 7.7030 -34.5744 44.5058 -14.5142 0.0000 -0.0000 -37.4774 -40.4991 -31.8443 24.2568 7.1250 -0.0000 -0.0000 -13.1498 -68.8032 7.5537
0.00 0.00 0.00 -173.6850 -62.2593 191.0390 0.0000 0.0000 0.0000 -21.3131 -3.0570 -70.7265 17.5462 19.8550 82.8089 3.0511 -5.9181 -31.8504 0.0070 -0.5391 -1.4814 0.0000 0.0000 0.0000 23.1856 -17.7996 -28.6628 -14.4018 -19.2314 73.4280 -1.3090 29.5453 -27.6272 -3.4436 11.3806 -33.5746 2.2338 5.5585 3.4570 -0.6898 7.5110 -4.4074 -2.5844 3.5747 -6.1361 -23.8924 -0.5533 7.1261 47.2616 -10.4388 10.7239 27.9077 -7.5420 6.3155 0.0000 0.0000 0.0000 -71.6847 6.8336 -26.9458 29.9283 -40.8319 -11.3627 -0.0000 0.0000 -93.6297 38.9513 -10.5851 -8.4464 -7.1250 0.0000 -0.0000 8.2386 16.5569 -5.6081 0.0000 0.0000 0.0000 87.7781 -0.9307 -23.7113 -20.5566 31.3071 -5.8178 0.0000 -0.0000 -24.9704 -45.1786 -30.4625 27.0282 7.1250 -0.0000 -0.0000 -21.2899 -68.7190 12.3169
0.00 0.00 0.00 -175.4040 -59.7356 192.1510 0.0000 0.0000 0.0000 -24.3405 -1.0886 -62.2245 13.7560 19.0384 71.4581 2.8038 -3.3292 -30.8982 0.0000 -0.0387 -0.1062 0.0000 0.0000 0.0000 23.0473 -11.3181 -18.6272 -9.4770 -17.1051 57.7256 -1.8326 21.4096 -26.7174 -3.9981 12.1579 -36.2930 6.7895 5.7857 0.6910 -0.0513 7.8646 -5.3692 -4.1424 3.5432 -5.0709 -27.2489 -0.3621 5.7213 43.7559 -10.0427 14.6279 25.9771 -6.9354 7.3753 -0.0000 -0.0000 0.0000 -66.2892 8.4541 -18.9210 28.1933 -39.2936 -10.2459 -0.0000 0.0000 -73.3360 29.0178 -5.8260 -3.2228 -7.1250 0.0000 -0.0000 1.7020 23.3251 -0.8894 -0.0000 -0.0000 0.0000 85.8048 2.0526 -36.5068 -19.9329 30.5614 -5.4972 0.0000 -0.0000 -23.2078 -48.5515 -34.0207 32.3558 7.1250 -0.0000 -0.0000 -29.9931 -73.7173 20.8502
0.00 0.00 0.00 -173.6020 -61.2436 190.6790 0.0000 0.0000 0.0000 -23.8685 -1.3036 -52.5886 9.5768 17.1649 58.0644 2.2499 -2.0852 -27.8305 0.0036 -0.3899 -1.0713 0.0000 0.0000 0.0000 25.1927 -9.5651 -14.1293 -6.6897 -15.0649 47.6908 -0.0985 16.0800 -12.2903 -3.9313 12.0684 -35.9742 6.7508 5.7121 -1.4808 -0.1468 7.5489 -6.4789 -4.0433 3.3304 -5.0436 -27.1794 -0.9835 6.0529 44.0420 -10.6235 12.9379 25.8322 -7.2614 7.1118 -0.0000 -0.0000 0.0000 -68.8714 7.9532 -10.7805 27.2084 -38.3772 -9.6282 -0.0000 0.0000 -69.5706 28.2372 -5.6060 -3.0030 -7.1250 0.0000 -0.0000 1.1367 23.6225 -0.5861 -0.0000 -0.0000 0.0000 88.0849 2.3023 -17.1891 -25.2729 36.4816 -8.4516 0.0000 -0.0000 -31.0976 -48.1015 -36.4526 33.5139 7.1250 -0.0000 -0.0000 -30.5224 -76.2077 22.7880
0.00 0.00 0.00 -170.6170 -63.1710 187.4690 0.0000 0.0000 0.0000 -22.3714 -3.4079 -41.0462 5.3484 13.7657 42.3070 1.3027 1.9287 -22.3360 0.0513 -1.4620 -4.0209 0.0000 0.0000 0.0000 27.4484 -8.0263 -20.3634 -8.3599 -16.3777 53.8488 0.1651 7.3139 1.2117 -2.6308 10.0720 -29.2102 5.1368 4.7970 -1.7646 0.4363 6.2857 -7.0602 -2.5669 2.7431 -5.8643 -27.0630 -1.8644 6.3798 44.7712 -11.1469 9.5968 25.7904 -7.5837 6.3893 -0.0000 -0.0000 0.0000 -72.7896 6.7199 3.7369 26.3638 -37.5657 -9.1086 -0.0000 0.0000 -60.3353 28.0922 -7.8581 -4.1739 -7.1250 0.0000 -0.0000 0.9079 21.0885 -0.5205 -0.0000 -0.0000 0.0000 85.8750 0.3219 13.0109 -33.8852 43.9995 -14.0332 0.0000 -0.0000 -31.1842 -47.1550 -32.1768 29.8635 7.1250 -0.0000 -0.0000 -25.7614 -71.2665 16.4577
